<svg id="stroke" xmlns="http://www.w3.org/2000/svg" xmlns:xlink="http://www.w3.org/1999/xlink" viewBox="0 0 250 250">
    <defs>
        <style>
            .cls-1 {
                fill: #993441;
            }

            .cls-2 {
                fill: #FFB8B1;
            }

            .cls-3 {
                fill: #fff;
            }

            .cls-4 {
                fill: #993441;
            }

            .cls-5 {
                opacity: 0.2;
            }

            .cls-6 {
                fill: #ff6d33;
            }

            .cls-7 {
                fill: #ff4800;
            }

            .cls-8 {
                opacity: 0.35;
            }

            .cls-9 {
                fill: url(#linear-gradient);
            }

            .cls-10 {
                fill: #003061;
            }

            .cls-11 {
                fill: #394d4e;
            }

            .cls-12 {
                fill: url(#linear-gradient-2);
            }

            .cls-13 {
                fill: url(#linear-gradient-3);
            }
        </style>
        <linearGradient id="linear-gradient" x1="126" y1="107.06" x2="126" y2="150" gradientUnits="userSpaceOnUse">
            <stop offset="0.12" stop-color="#fff" />
            <stop offset="0.31" stop-color="#fdfefe" />
            <stop offset="0.53" stop-color="#f5f9fc" />
            <stop offset="0.68" stop-color="#e8f1f9" />
            <stop offset="0.77" stop-color="#d7e6f5" />
            <stop offset="0.81" stop-color="#d5e5f4" />
            <stop offset="0.9" stop-color="#bdd7ee" />
            <stop offset="1" stop-color="#a3c7e8" />
        </linearGradient>
        <linearGradient id="linear-gradient-2" x1="132.53" y1="2333.64" x2="132.53" y2="2325.5"
            gradientTransform="matrix(1, 0, 0, -1, 0, 2477.14)" gradientUnits="userSpaceOnUse">
            <stop offset="0" stop-color="#fff" />
            <stop offset="0.27" stop-color="#eaf2fa" />
            <stop offset="0.84" stop-color="#b4d1ec" />
            <stop offset="1" stop-color="#a3c7e8" />
        </linearGradient>
        <linearGradient id="linear-gradient-3" x1="145.71" y1="159" x2="145.71" y2="144.65"
            gradientTransform="matrix(1, 0, 0, 1, 0, 0)" xlink:href="#linear-gradient-2" />
    </defs>
    <g id="Isolation_Mode">
        <path class="cls-1"
            d="M244.1,137.93H11.78a166.16,166.16,0,0,0,8,22.13,140.75,140.75,0,0,0,8.69,16.48c.77,1.24,1.55,2.46,2.36,3.67h0q3.12,4.66,6.68,9c5.66,6.11,6.59,8,13.41,13.33,16.59,13.06,38.06,20.2,65.59,14.88a122.74,122.74,0,0,0,18-5c4.07-1.46,32-10,37.24-11.44h0q2.59-.69,5.11-1.34l-4.43,0a2.19,2.19,0,0,0-.63.93,2.19,2.19,0,0,1,.63-.93h4.43c15.49-4,28.77-7.18,39.35-11.24.59-.23,1.15-.46,1.72-.7,7.88-3.19,14.17-7,18.6-12.17,5-5.83,7.61-13.43,7.61-24C244.22,147.08,244.22,142.52,244.1,137.93Z" />
        <path class="cls-2"
            d="M157.65,57.91c-26.24-1.35-60.54-3.42-83.31.3C52.66,61.75,5.78,67.38,5.78,99.5c0,10.22,1.87,23.93,6,38.43H244.1C243.12,101.79,234.6,61.87,157.65,57.91Z" />
        <path class="cls-3" d="M104.9,166.28H93a1.16,1.16,0,1,0,0,2.32H104.9a1.16,1.16,0,1,0,0-2.32Z" />
        <path class="cls-3" d="M83.34,166.28H71.47a1.16,1.16,0,1,0,0,2.32H83.34a1.16,1.16,0,1,0,0-2.32Z" />
        <path class="cls-3" d="M61.78,166.28H49.91a1.16,1.16,0,1,0,0,2.32H61.78a1.16,1.16,0,1,0,0-2.32Z" />
        <path class="cls-3" d="M40.22,166.28H28.35a1.16,1.16,0,0,0,0,2.32H40.22a1.16,1.16,0,0,0,0-2.32Z" />
        <path class="cls-3" d="M126.46,166.28H114.6a1.16,1.16,0,1,0,0,2.32h11.86a1.16,1.16,0,1,0,0-2.32Z" />
        <path class="cls-3" d="M191.14,166.28H179.28a1.16,1.16,0,1,0,0,2.32h11.86a1.16,1.16,0,1,0,0-2.32Z" />
        <path class="cls-3" d="M222.4,168.6h11.86a1.16,1.16,0,1,0,0-2.32H222.4a1.16,1.16,0,1,0,0,2.32Z" />
        <path class="cls-3" d="M169.58,166.28H157.72a1.16,1.16,0,1,0,0,2.32h11.86a1.16,1.16,0,1,0,0-2.32Z" />
        <path class="cls-3" d="M148,166.28H136.16a1.16,1.16,0,1,0,0,2.32H148a1.16,1.16,0,1,0,0-2.32Z" />
        <path class="cls-3" d="M200.84,168.6H212.7a1.16,1.16,0,1,0,0-2.32H200.84a1.16,1.16,0,1,0,0,2.32Z" />
        <path class="cls-3" d="M104.9,190.28H93a1.16,1.16,0,1,0,0,2.32H104.9a1.16,1.16,0,1,0,0-2.32Z" />
        <path class="cls-3" d="M83.34,190.28H71.47a1.16,1.16,0,1,0,0,2.32H83.34a1.16,1.16,0,1,0,0-2.32Z" />
        <path class="cls-3" d="M61.78,190.28H49.91a1.16,1.16,0,1,0,0,2.32H61.78a1.16,1.16,0,1,0,0-2.32Z" />
        <path class="cls-3" d="M126.46,190.28H114.6a1.16,1.16,0,1,0,0,2.32h11.86a1.16,1.16,0,1,0,0-2.32Z" />
        <path class="cls-3" d="M191.14,190.28H179.28a1.16,1.16,0,1,0,0,2.32h11.86a1.16,1.16,0,1,0,0-2.32Z" />
        <path class="cls-3" d="M169.58,190.28H157.72a1.16,1.16,0,1,0,0,2.32h11.86a1.16,1.16,0,1,0,0-2.32Z" />
        <path class="cls-3" d="M148,190.28H136.16a1.16,1.16,0,1,0,0,2.32H148a1.16,1.16,0,1,0,0-2.32Z" />
        <path class="cls-4"
            d="M123.62,30.79h-.11a31.72,31.72,0,0,0-32,32c0,30.5,29.31,60.16,30.55,61.41a2.14,2.14,0,0,0,3,0h0c1.24-1.25,30.55-30.91,30.55-61.41A31.72,31.72,0,0,0,123.62,30.79Z" />
        <g class="cls-5">
            <path
                d="M126.91,83.14l-10.22-7.57c-2.65-2-5.33-3.91-8-5.91a13,13,0,0,1,1.68-21.88,12.87,12.87,0,0,1,12.83.24l.58.34a14.18,14.18,0,0,1,4.59-2.8A12.89,12.89,0,0,1,145,53.15a12.12,12.12,0,0,1,.54,1.87,12.77,12.77,0,0,1-3.39,11.84q-7.41,8-14.88,15.91Z" />
        </g>
        <path class="cls-6"
            d="M123.22,80.39,113,72.82c-2.66-2-5.33-3.91-8-5.92A13,13,0,0,1,106.71,45a12.86,12.86,0,0,1,12.84.24l.58.33a14.42,14.42,0,0,1,4.59-2.8,12.92,12.92,0,0,1,16.59,7.59,15,15,0,0,1,.54,1.88,12.77,12.77,0,0,1-3.39,11.84Q131,72.09,123.57,80Z" />
        <path class="cls-7"
            d="M100,58.58a12.73,12.73,0,0,0,5,8.32c2.63,2,5.3,3.95,8,5.92l10.22,7.57.35-.37q7.45-8,14.89-15.91a12.77,12.77,0,0,0,3.39-11.84,12.9,12.9,0,0,0-15.26-10,15.34,15.34,0,0,0-1.87.54,14.53,14.53,0,0,0-4.59,2.8l-.58-.33A12.86,12.86,0,0,0,106.71,45c2.82-1.17,8.77-.63,12.52,3.7.4-1.92,3.46-5.22,7.86-5.62,4.71-.42,10,3.37,10.65,10,.35,3.9-.6,5.67-2.42,7.84l-14.49,15.8-12.54-9.13C105.15,65,100.27,61.33,100,58.58Z" />
        <path class="cls-3"
            d="M105.32,56a2.25,2.25,0,0,1-2.44-2,2.34,2.34,0,0,1,.16-1,11.33,11.33,0,0,1,7-6.31,2.25,2.25,0,0,1,1.27,4.31h0a7,7,0,0,0-4.12,3.7A2.25,2.25,0,0,1,105.32,56Z" />
        <path class="cls-8"
            d="M51.41,157.36c-11.4-.25-23.45,3.18-15.55,3.18,54.18,0,24.11,70.66,88,15.41,12-10.41,129.45-10.41,90.47-17.66-6.29-1.18-25.77-1.42-35.06-1.83C179.3,156.65,62.91,157.62,51.41,157.36Z" />
        <path class="cls-9"
            d="M223.6,141.84c-.47-4.75-11.15-9.69-23.1-12.76a.74.74,0,0,0-.21,0c-2,0-32.8-2.54-70.48-2.54-32.29-.9-71.84,2-71.84,2L36.54,107.44a2.46,2.46,0,0,0-1.24-.35l-4.7,0a1.83,1.83,0,0,0-2,1.6,1.58,1.58,0,0,0,0,.38l5.88,23.83s-6.22.91-6.16,1.75c.39,5.57,39.43,15.18,48.15,15.24,42.92.29,131.73,0,131.73,0,4.9,0,9.68-1.43,12.48-3.75,2-1.57,3-2,2.89-4.17A.68.68,0,0,0,223.6,141.84Z" />
        <path class="cls-10"
            d="M73.79,138.58h0a.81.81,0,0,1-.81-.79v-1.31a.8.8,0,0,1,.81-.79h0a.8.8,0,0,1,.82.79v1.31A.81.81,0,0,1,73.79,138.58Z" />
        <path class="cls-10"
            d="M79.93,138.58h0a.8.8,0,0,1-.81-.79v-1.31a.8.8,0,0,1,.81-.79h0a.8.8,0,0,1,.81.79v1.31A.8.8,0,0,1,79.93,138.58Z" />
        <path class="cls-10"
            d="M86.06,138.58h0a.8.8,0,0,1-.81-.79v-1.31a.8.8,0,0,1,.81-.79h0a.8.8,0,0,1,.81.79v1.31A.8.8,0,0,1,86.06,138.58Z" />
        <path class="cls-10"
            d="M92.19,138.58h0a.81.81,0,0,1-.81-.79v-1.31a.8.8,0,0,1,.81-.79h0a.8.8,0,0,1,.82.79v1.31A.81.81,0,0,1,92.19,138.58Z" />
        <path class="cls-10"
            d="M98.33,138.58h0a.8.8,0,0,1-.81-.79v-1.31a.8.8,0,0,1,.81-.79h0a.8.8,0,0,1,.81.79v1.31A.8.8,0,0,1,98.33,138.58Z" />
        <path class="cls-10"
            d="M104.46,138.58h0a.8.8,0,0,1-.81-.79v-1.31a.8.8,0,0,1,.81-.79h0a.8.8,0,0,1,.81.79v1.31A.8.8,0,0,1,104.46,138.58Z" />
        <path class="cls-10"
            d="M110.59,138.58h0a.81.81,0,0,1-.81-.79v-1.31a.8.8,0,0,1,.81-.79h0a.8.8,0,0,1,.82.79v1.31A.81.81,0,0,1,110.59,138.58Z" />
        <path class="cls-10"
            d="M116.73,138.58h0a.8.8,0,0,1-.81-.79v-1.31a.8.8,0,0,1,.81-.79h0a.8.8,0,0,1,.81.79v1.31A.8.8,0,0,1,116.73,138.58Z" />
        <path class="cls-10"
            d="M122.86,138.58h0a.8.8,0,0,1-.81-.79v-1.31a.8.8,0,0,1,.81-.79h0a.8.8,0,0,1,.81.79v1.31A.8.8,0,0,1,122.86,138.58Z" />
        <path class="cls-10"
            d="M129,138.58h0a.81.81,0,0,1-.81-.79v-1.31a.8.8,0,0,1,.81-.79h0a.8.8,0,0,1,.82.79v1.31A.81.81,0,0,1,129,138.58Z" />
        <path class="cls-10"
            d="M135.13,138.58h0a.8.8,0,0,1-.81-.79v-1.31a.8.8,0,0,1,.81-.79h0a.8.8,0,0,1,.81.79v1.31A.8.8,0,0,1,135.13,138.58Z" />
        <path class="cls-10"
            d="M141.26,138.58h0a.8.8,0,0,1-.81-.79v-1.31a.8.8,0,0,1,.81-.79h0a.8.8,0,0,1,.81.79v1.31A.8.8,0,0,1,141.26,138.58Z" />
        <path class="cls-10"
            d="M147.39,138.58h0a.81.81,0,0,1-.81-.79v-1.31a.8.8,0,0,1,.81-.79h0a.8.8,0,0,1,.82.79v1.31A.81.81,0,0,1,147.39,138.58Z" />
        <path class="cls-10"
            d="M153.53,138.58h0a.8.8,0,0,1-.81-.79v-1.31a.8.8,0,0,1,.81-.79h0a.8.8,0,0,1,.81.79v1.31A.8.8,0,0,1,153.53,138.58Z" />
        <path class="cls-10"
            d="M159.66,138.58h0a.8.8,0,0,1-.81-.79v-1.31a.8.8,0,0,1,.81-.79h0a.8.8,0,0,1,.81.79v1.31A.8.8,0,0,1,159.66,138.58Z" />
        <path class="cls-10"
            d="M165.79,138.58h0a.81.81,0,0,1-.81-.79v-1.31a.8.8,0,0,1,.81-.79h0a.8.8,0,0,1,.82.79v1.31A.81.81,0,0,1,165.79,138.58Z" />
        <path class="cls-10"
            d="M171.93,138.58h0a.81.81,0,0,1-.82-.79v-1.31a.8.8,0,0,1,.82-.79h0a.8.8,0,0,1,.81.79v1.31A.8.8,0,0,1,171.93,138.58Z" />
        <path class="cls-10"
            d="M178.06,138.58h0a.8.8,0,0,1-.81-.79v-1.31a.8.8,0,0,1,.81-.79h0a.8.8,0,0,1,.81.79v1.31A.8.8,0,0,1,178.06,138.58Z" />
        <path class="cls-10"
            d="M184.19,138.58h0a.8.8,0,0,1-.81-.79v-1.31a.8.8,0,0,1,.81-.79h0a.8.8,0,0,1,.81.79v1.31A.8.8,0,0,1,184.19,138.58Z" />
        <path class="cls-10"
            d="M190.33,138.58h0a.81.81,0,0,1-.82-.79v-1.31a.8.8,0,0,1,.82-.79h0a.8.8,0,0,1,.81.79v1.31A.81.81,0,0,1,190.33,138.58Z" />
        <path class="cls-10"
            d="M196.46,138.58h0a.8.8,0,0,1-.81-.79v-1.31a.8.8,0,0,1,.81-.79h0a.8.8,0,0,1,.81.79v1.31A.8.8,0,0,1,196.46,138.58Z" />
        <path class="cls-10"
            d="M202.59,138.58h0a.8.8,0,0,1-.81-.79v-1.31a.8.8,0,0,1,.81-.79h0a.8.8,0,0,1,.81.79v1.31A.8.8,0,0,1,202.59,138.58Z" />
        <circle class="cls-11" cx="178.61" cy="157.11" r="1.95" />
        <circle class="cls-11" cx="86.21" cy="157.11" r="3.25" />
        <circle class="cls-11" cx="93.37" cy="157.11" r="3.25" />
        <path class="cls-10"
            d="M218,135.61h-3.58s-1.29,0-1.54.62l-.43,1s-.54.94,1.25.94h7.71s-1-.83-1.73-1.43C219.1,136.34,218,135.61,218,135.61Z" />
        <path class="cls-12"
            d="M98.77,144.46l-.62.5-5.32,2.94s-9.92,4.19,5.14,3.59c5.85,0,27.52-1.92,37.84-2.82,14.25-1.25,28.66-2.9,35.51-3.71l4.11-.5C140,143.19,98.77,144.46,98.77,144.46Z" />
        <path class="cls-13"
            d="M156.6,150.69c0,3.72,2.53,7.6-3.83,7.6s-18.45-3-18.45-6.74,12.08-6.74,18.45-6.74S156.6,147,156.6,150.69Z" />
    </g>
</svg>